<svg xmlns="http://www.w3.org/2000/svg" width="168" height="28" viewBox="0 0 9370 28"><g fill="#000"><path d="M74.516 17.803v-715l713 2 712 3 3 282 2 283h-110v-460h-1220v1210h1220l-1-237v-238l-61 188-62 187h-85l-58-180c-32-99-60-180-63-180s-4 81-2 180l3 180h-111v-540h159l49 158c28 86 53 167 57 180s10 21 13 17c4-4 30-84 57-178l51-172 82-3 82-3-2 373-3 373-712 3-713 2zM6084.516 529.803c-30-7-65-19-78-27-29-19-58-65-67-107l-7-33h76c61 0 76 3 76 15 0 34 38 55 98 55 63 0 82-11 82-47 0-30-21-40-135-62-143-29-192-75-183-173 8-78 60-121 166-138 74-12 176 4 223 35 37 24 69 77 69 114 0 19-6 21-70 21-56 0-70-3-70-15 0-31-38-55-86-55-58 0-84 14-84 45 0 32 18 40 122 58 149 26 200 64 201 154 1 67-25 108-88 138-62 30-168 39-245 22zM8991.516 532.803c-69-12-109-39-134-90-38-74-35-80 52-80 60 0 75 3 75 15 0 33 38 55 93 55 66 0 92-17 83-53-7-28-36-41-116-52-136-19-200-69-200-156 0-94 46-140 161-158 138-22 249 19 285 105 25 60 22 64-53 64-65-1-69-2-88-33-18-29-26-32-73-35-60-3-82 8-82 44 0 31 18 39 121 57 158 27 203 66 196 169-4 67-28 100-92 129-48 21-162 31-228 19zM2769.516 518.803c-17-7-43-28-58-45-23-27-27-42-27-90 0-100 56-144 208-161 107-12 119-16 127-41 23-70-115-96-154-28-15 28-19 29-88 29-79 0-83-3-62-57 34-90 148-133 296-112 145 20 161 53 165 322l3 187h-72c-70 0-73-1-79-26l-6-25-22 20c-11 11-34 24-49 30-39 15-146 13-182-3zm204-100c31-17 51-54 51-98 0-25-3-29-17-23-10 4-44 11-77 15-89 13-121 55-76 100 24 24 78 26 119 6zM4239.516 517.803c-55-19-129-101-144-159-49-195 60-349 247-349 149 0 245 89 259 238l6 65h-187c-182 0-186 0-186 21 0 12 16 37 35 56 33 33 39 35 86 31 36-4 58-12 78-32 23-22 36-26 87-26 34 0 63 3 67 6 9 9-27 75-55 101-63 59-199 81-293 48zm215-311c0-9-15-31-34-50-29-29-41-34-79-34-53 0-92 28-103 73l-6 27h111c95 0 111-2 111-16zM4999.516 516.803c-82-30-143-116-152-215-16-176 88-291 262-291s278 115 262 291c-9 101-70 185-156 216-54 19-163 18-216-1zm164-118c37-19 51-55 51-127 0-65-18-112-49-129-33-17-96-12-124 10-61 48-53 210 12 245 34 18 75 19 110 1zM5494.516 510.803c-73-50-75-57-78-284l-3-204h151v164c0 150 2 165 21 190 28 35 86 36 126 2l28-24 3-166 3-166h149v500h-150v-64l-27 26c-37 35-73 48-137 48-39 0-62-6-86-22zM7567.516 515.803c-52-18-125-95-141-151-16-54-15-141 3-193 23-64 59-104 120-134 116-57 276-26 344 66 56 77 66 210 22 296-26 51-89 106-140 121-52 16-157 14-208-5zm166-117c37-19 51-55 51-127 0-99-32-139-110-139-95 0-139 122-83 233 23 45 88 60 142 33zM1856.516 175.803l3-348 122-3 122-3 35 113c19 62 50 166 68 230 18 65 35 118 38 118s20-53 38-118c18-64 49-168 68-230l35-113 122 3 122 3 3 348 2 347h-160l-1-252v-253l-35 110c-20 61-56 174-81 253l-45 142h-136l-11-32c-66-212-131-420-139-448-8-26-10 33-11 223l-1 257h-160zM3234.516 272.803v-250h150v68l29-28c30-31 77-48 90-34 5 5 18 35 30 67l21 57h-36c-20 0-50 7-68 15-54 26-60 45-64 208l-4 147h-148zM3744.516 520.803c-1-2-41-113-89-248l-88-245 80-3c56-2 83 1 88 10 4 7 29 88 55 180 26 93 49 167 51 165 3-4 103-344 103-353 0-2 36-4 81-4 61 0 80 3 77 13-3 6-43 119-89 249l-84 238h-92c-51 0-93-1-93-2zM4646.516 175.803l3-348h150l3 348 2 347h-160zM6476.516 440.803l3-83h170l3 83 3 82h-182zM6759.516 510.803c-3-7-41-120-84-250l-79-238h166l16 53c8 28 28 98 43 154 15 57 30 103 33 103s16-39 28-87c13-49 32-119 43-156l20-68 72 3 72 3 38 140c21 77 41 148 45 158 5 11 23-39 52-143l45-160h163l-32 103c-18 56-55 168-82 250l-48 147h-163l-44-154c-24-85-47-152-50-148s-16 43-28 87-31 110-42 148l-20 67h-80c-54 0-81-4-84-12zM7984.516 272.803v-250h150v38l1 37 20-28c28-37 69-57 119-57h40v138l-55 4c-102 9-125 51-125 238v130h-150z"/><path d="M8334.516 212.803v-310l70-35c38-19 72-35 75-35s5 87 5 193l1 192 92-97 93-98h179l-93 93c-50 51-92 96-92 100s43 73 95 153 95 147 95 150-39 3-87 2l-86-3-54-85c-29-47-58-92-63-100-7-12-15-9-44 19-34 33-36 38-36 103v68h-150z"/></g></svg>
