<svg width="138" height="40" viewBox="0 0 138 40" fill="none" xmlns="http://www.w3.org/2000/svg">
<path d="M0.283203 0.935608H38.412V39.0644H0.283203V0.935608Z" fill="currentColor"/>
<path d="M11.1732 31.4244C10.0953 31.4244 9.00355 31.2898 7.89807 31.0229C6.79717 30.7629 5.77425 30.3385 4.8339 29.7545C3.89126 29.1705 3.10229 28.3904 2.46698 27.4094C1.82937 26.4239 1.44406 25.2103 1.31104 23.7685H5.6871C5.9371 24.8225 6.34764 25.646 6.91643 26.2414C7.48523 26.8323 8.14577 27.2452 8.89805 27.4824C9.65033 27.7151 10.4164 27.8292 11.2008 27.8292C12.3567 27.8292 13.3246 27.5874 14.109 27.0992C14.8911 26.6133 15.2833 25.8354 15.2833 24.7632C15.2833 23.9853 15.0287 23.383 14.5218 22.9564C14.0126 22.5253 13.3521 22.1876 12.5402 21.9435C11.726 21.7017 10.8384 21.4827 9.87968 21.2865C8.96227 21.0744 8.04027 20.844 7.11827 20.593C6.20085 20.3375 5.35224 19.9885 4.57703 19.5437C3.8064 19.0943 3.19173 18.4943 2.73303 17.746C2.27432 16.9932 2.04497 16.0305 2.04497 14.8625C2.04497 13.4276 2.389 12.23 3.08164 11.2673C3.77888 10.3 4.72382 9.57004 5.91645 9.07729C7.11368 8.57998 8.46686 8.32904 9.97142 8.32904C11.4209 8.32904 12.781 8.58226 14.0539 9.08642C15.3245 9.59285 16.4025 10.3616 17.2832 11.395C18.1639 12.4239 18.719 13.747 18.9529 15.3644H14.6411C14.3658 14.1782 13.7902 13.309 12.9163 12.7547C12.0471 12.1958 11.0356 11.9152 9.87968 11.9152C8.82695 11.9152 7.9577 12.1342 7.27423 12.5722C6.58846 13.0102 6.24672 13.658 6.24672 14.5158C6.24672 15.1979 6.48525 15.734 6.96231 16.1218C7.43936 16.5119 8.06779 16.8199 8.85218 17.0434C9.63427 17.2693 10.4783 17.4883 11.3842 17.7004C12.32 17.8966 13.2604 18.1361 14.2099 18.4213C15.164 18.7019 16.0447 19.0783 16.852 19.5528C17.6639 20.0273 18.3153 20.666 18.8061 21.469C19.2946 22.2675 19.5401 23.2986 19.5401 24.5624C19.5401 26.6612 18.8061 28.331 17.3383 29.572C15.8704 30.8085 13.8154 31.4244 11.1732 31.4244Z" fill="white" class="s"/>
<path d="M25.2275 8.6712H34.4751V30.9545H25.6129C22.8744 30.9545 20.8973 30.3476 19.6864 29.1386C18.7644 28.2261 18.3011 26.9691 18.3011 25.37C18.3011 24.1039 18.5923 23.0248 19.1726 22.1306C19.7483 21.2363 20.5648 20.6523 21.6221 20.3786C20.1726 20.1459 19.0671 19.5779 18.3011 18.6722C17.5373 17.7643 17.1543 16.5917 17.1543 15.15C17.1543 14.0778 17.347 13.1447 17.7323 12.3486C18.113 11.5501 18.5855 10.9091 19.1543 10.4232C19.8033 9.89852 20.5258 9.5107 21.3194 9.2552C22.1083 8.9997 22.8514 8.83773 23.5487 8.77158C24.2413 8.70314 24.8009 8.6712 25.2275 8.6712ZM30.255 27.1858V21.6926H25.8789C24.8032 21.6926 23.9799 21.9298 23.4111 22.4043C22.8423 22.8834 22.5579 23.5723 22.5579 24.4666C22.5579 25.3426 22.8239 25.9836 23.356 26.392C23.9615 26.9212 25.0257 27.1858 26.5486 27.1858H30.255ZM30.255 18.2798V12.4398H25.7596C25.1908 12.4398 24.5762 12.4877 23.9156 12.5858C23.2505 12.6816 22.6909 12.9257 22.2368 13.3158C21.9615 13.528 21.7574 13.8086 21.6221 14.1553C21.4822 14.5066 21.4111 14.9492 21.4111 15.4785C21.4111 16.3545 21.6129 16.9864 22.0166 17.3765C22.4203 17.7643 22.9225 18.0106 23.5212 18.1156C24.1152 18.2251 24.7046 18.2798 25.2918 18.2798H30.255Z" fill="white" class="s"/>
<path d="M46.5366 30.9181H42.4121V9.08197H49.2285L53.7454 25.9358L58.2349 9.08197H65.106V30.9181H60.9906V12.1753L55.7802 30.9181H51.747L46.5366 12.2848V30.9181Z" fill="currentColor"/>
<path d="M83.6695 30.9181H69.106V9.08197H83.6695V12.7776H73.2305V18.1522H82.5836V21.8205H73.2305V27.2225H83.6695V30.9181Z" fill="currentColor"/>
<path d="M94.0204 30.9181H87.6694V9.08197H94.0204C97.7252 9.08197 100.554 10.0287 102.507 11.9198C104.464 13.8064 105.445 16.5052 105.445 20.0137C105.445 23.5063 104.462 26.1982 102.498 28.0893C100.531 29.9759 97.7069 30.9181 94.0204 30.9181ZM91.7939 12.7776V27.2225H93.9657C95.4188 27.2225 96.6963 27.0012 97.7982 26.5563C98.9046 26.1069 99.7692 25.3518 100.39 24.2933C101.01 23.2348 101.32 21.8091 101.32 20.0137C101.32 18.3165 101.012 16.9386 100.399 15.8801C99.7897 14.8216 98.9388 14.0414 97.8438 13.535C96.7488 13.0308 95.4645 12.7776 93.9931 12.7776H91.7939Z" fill="currentColor"/>
<path d="M113.569 30.9181H109.445V9.08197H113.569V30.9181Z" fill="currentColor"/>
<path d="M121.885 30.9181H117.569L125.271 9.08197H129.788L137.489 30.9181H133.164L131.677 26.4286H123.345L121.885 30.9181ZM127.525 13.5806L124.523 22.8242H130.536L127.525 13.5806Z" fill="currentColor"/>
</svg>
